<svg width="14" height="17" viewBox="0 0 14 17" fill="none" xmlns="http://www.w3.org/2000/svg">
<path d="M1.66667 16.6667C1.20833 16.6667 0.815972 16.5035 0.489583 16.1771C0.163194 15.8507 0 15.4583 0 15V5C0 4.54167 0.163194 4.14931 0.489583 3.82292C0.815972 3.49653 1.20833 3.33333 1.66667 3.33333H3.33333C3.33333 2.41667 3.65972 1.63194 4.3125 0.979167C4.96528 0.326389 5.75 0 6.66667 0C7.58333 0 8.36806 0.326389 9.02083 0.979167C9.67361 1.63194 10 2.41667 10 3.33333H11.6667C12.125 3.33333 12.5174 3.49653 12.8438 3.82292C13.1701 4.14931 13.3333 4.54167 13.3333 5V15C13.3333 15.4583 13.1701 15.8507 12.8438 16.1771C12.5174 16.5035 12.125 16.6667 11.6667 16.6667H1.66667ZM1.66667 15H11.6667V5H10V6.66667C10 6.90278 9.92014 7.10069 9.76042 7.26042C9.60069 7.42014 9.40278 7.5 9.16667 7.5C8.93056 7.5 8.73264 7.42014 8.57292 7.26042C8.41319 7.10069 8.33333 6.90278 8.33333 6.66667V5H5V6.66667C5 6.90278 4.92014 7.10069 4.76042 7.26042C4.60069 7.42014 4.40278 7.5 4.16667 7.5C3.93056 7.5 3.73264 7.42014 3.57292 7.26042C3.41319 7.10069 3.33333 6.90278 3.33333 6.66667V5H1.66667V15ZM5 3.33333H8.33333C8.33333 2.875 8.17014 2.48264 7.84375 2.15625C7.51736 1.82986 7.125 1.66667 6.66667 1.66667C6.20833 1.66667 5.81597 1.82986 5.48958 2.15625C5.16319 2.48264 5 2.875 5 3.33333ZM1.66667 15V5V15Z" fill="white"/>
</svg>
