<svg width="18" height="18" viewBox="0 0 18 18" fill="none" xmlns="http://www.w3.org/2000/svg">
<path d="M8.33333 6.33333H15C14.625 5.375 14.0521 4.55208 13.2812 3.86458C12.5104 3.17708 11.625 2.69444 10.625 2.41667L8.33333 6.33333V6.33333M6.41667 8L9.75 2.25C9.59722 2.22222 9.44444 2.20139 9.29167 2.1875C9.13889 2.17361 8.98611 2.16667 8.83333 2.16667C7.91667 2.16667 7.0625 2.34028 6.27083 2.6875C5.47917 3.03472 4.77778 3.5 4.16667 4.08333L6.41667 8V8M2.375 10.5H6.91667L3.58333 4.75C3.13889 5.31944 2.79167 5.94792 2.54167 6.63542C2.29167 7.32292 2.16667 8.05556 2.16667 8.83333C2.16667 9.125 2.18403 9.40625 2.21875 9.67708C2.25347 9.94792 2.30556 10.2222 2.375 10.5V10.5M7.04167 15.25L9.29167 11.3333H2.66667C3.04167 12.2917 3.61458 13.1146 4.38542 13.8021C5.15625 14.4896 6.04167 14.9722 7.04167 15.25V15.25M8.83333 15.5C9.75 15.5 10.6042 15.3264 11.3958 14.9792C12.1875 14.6319 12.8889 14.1667 13.5 13.5833L11.25 9.66667L7.91667 15.4167C8.06944 15.4444 8.21875 15.4653 8.36458 15.4792C8.51042 15.4931 8.66667 15.5 8.83333 15.5V15.5M14.0833 12.9167C14.5278 12.3472 14.875 11.7188 15.125 11.0312C15.375 10.3438 15.5 9.61111 15.5 8.83333C15.5 8.54167 15.4826 8.26042 15.4479 7.98958C15.4132 7.71875 15.3611 7.44444 15.2917 7.16667H10.75L14.0833 12.9167V12.9167M8.83333 8.83333V8.83333V8.83333V8.83333V8.83333V8.83333V8.83333V8.83333V8.83333V8.83333V8.83333V8.83333V8.83333V8.83333V8.83333V8.83333V8.83333V8.83333M8.83333 17.1667C7.69444 17.1667 6.61806 16.9479 5.60417 16.5104C4.59028 16.0729 3.70486 15.4757 2.94792 14.7188C2.19097 13.9618 1.59375 13.0764 1.15625 12.0625C0.71875 11.0486 0.5 9.97222 0.5 8.83333C0.5 7.68056 0.71875 6.60069 1.15625 5.59375C1.59375 4.58681 2.19097 3.70486 2.94792 2.94792C3.70486 2.19097 4.59028 1.59375 5.60417 1.15625C6.61806 0.71875 7.69444 0.5 8.83333 0.5C9.98611 0.5 11.066 0.71875 12.0729 1.15625C13.0799 1.59375 13.9618 2.19097 14.7188 2.94792C15.4757 3.70486 16.0729 4.58681 16.5104 5.59375C16.9479 6.60069 17.1667 7.68056 17.1667 8.83333C17.1667 9.97222 16.9479 11.0486 16.5104 12.0625C16.0729 13.0764 15.4757 13.9618 14.7188 14.7188C13.9618 15.4757 13.0799 16.0729 12.0729 16.5104C11.066 16.9479 9.98611 17.1667 8.83333 17.1667V17.1667" fill="#64748B"/>
<path d="M8.33333 6.33333H15C14.625 5.375 14.0521 4.55208 13.2812 3.86458C12.5104 3.17708 11.625 2.69444 10.625 2.41667L8.33333 6.33333V6.33333M6.41667 8L9.75 2.25C9.59722 2.22222 9.44444 2.20139 9.29167 2.1875C9.13889 2.17361 8.98611 2.16667 8.83333 2.16667C7.91667 2.16667 7.0625 2.34028 6.27083 2.6875C5.47917 3.03472 4.77778 3.5 4.16667 4.08333L6.41667 8V8M2.375 10.5H6.91667L3.58333 4.75C3.13889 5.31944 2.79167 5.94792 2.54167 6.63542C2.29167 7.32292 2.16667 8.05556 2.16667 8.83333C2.16667 9.125 2.18403 9.40625 2.21875 9.67708C2.25347 9.94792 2.30556 10.2222 2.375 10.5V10.5M7.04167 15.25L9.29167 11.3333H2.66667C3.04167 12.2917 3.61458 13.1146 4.38542 13.8021C5.15625 14.4896 6.04167 14.9722 7.04167 15.25V15.25M8.83333 15.5C9.75 15.5 10.6042 15.3264 11.3958 14.9792C12.1875 14.6319 12.8889 14.1667 13.5 13.5833L11.25 9.66667L7.91667 15.4167C8.06944 15.4444 8.21875 15.4653 8.36458 15.4792C8.51042 15.4931 8.66667 15.5 8.83333 15.5V15.5M14.0833 12.9167C14.5278 12.3472 14.875 11.7188 15.125 11.0312C15.375 10.3438 15.5 9.61111 15.5 8.83333C15.5 8.54167 15.4826 8.26042 15.4479 7.98958C15.4132 7.71875 15.3611 7.44444 15.2917 7.16667H10.75L14.0833 12.9167V12.9167M8.83333 8.83333V8.83333V8.83333V8.83333V8.83333V8.83333V8.83333V8.83333V8.83333V8.83333V8.83333V8.83333V8.83333V8.83333V8.83333V8.83333V8.83333V8.83333M8.83333 17.1667C7.69444 17.1667 6.61806 16.9479 5.60417 16.5104C4.59028 16.0729 3.70486 15.4757 2.94792 14.7188C2.19097 13.9618 1.59375 13.0764 1.15625 12.0625C0.71875 11.0486 0.5 9.97222 0.5 8.83333C0.5 7.68056 0.71875 6.60069 1.15625 5.59375C1.59375 4.58681 2.19097 3.70486 2.94792 2.94792C3.70486 2.19097 4.59028 1.59375 5.60417 1.15625C6.61806 0.71875 7.69444 0.5 8.83333 0.5C9.98611 0.5 11.066 0.71875 12.0729 1.15625C13.0799 1.59375 13.9618 2.19097 14.7188 2.94792C15.4757 3.70486 16.0729 4.58681 16.5104 5.59375C16.9479 6.60069 17.1667 7.68056 17.1667 8.83333C17.1667 9.97222 16.9479 11.0486 16.5104 12.0625C16.0729 13.0764 15.4757 13.9618 14.7188 14.7188C13.9618 15.4757 13.0799 16.0729 12.0729 16.5104C11.066 16.9479 9.98611 17.1667 8.83333 17.1667V17.1667" stroke="black" stroke-linejoin="bevel"/>
</svg>
